<?xml version="1.0" standalone="no"?>
<!DOCTYPE svg PUBLIC "-//W3C//DTD SVG 20010904//EN"
 "http://www.w3.org/TR/2001/REC-SVG-20010904/DTD/svg10.dtd">
<svg version="1.0" xmlns="http://www.w3.org/2000/svg"
 width="500.000000pt" height="500.000000pt" viewBox="0 0 500.000000 500.000000"
 preserveAspectRatio="xMidYMid meet">
<metadata>
Created by potrace 1.14, written by Peter Selinger 2001-2017
</metadata>
<g transform="translate(0.000000,500.000000) scale(0.100000,-0.100000)"
fill="#000000" stroke="none">
<path d="M2305 4994 c-353 -37 -616 -111 -911 -255 -242 -118 -458 -272 -655
-469 -403 -403 -640 -882 -721 -1465 -16 -116 -16 -494 0 -610 68 -488 246
-904 545 -1275 79 -98 272 -290 367 -365 344 -274 741 -451 1175 -522 141 -24
188 -27 395 -27 207 0 254 3 395 27 265 44 464 107 711 228 242 118 458 272
655 469 396 396 627 857 716 1430 24 160 24 520 0 680 -74 480 -247 876 -540
1240 -79 98 -272 290 -367 365 -445 354 -961 540 -1525 550 -110 2 -218 1
-240 -1z m-1125 -1649 c0 -25 -1 -25 -91 -25 l-90 0 4 -712 c4 -761 5 -772 55
-890 74 -171 285 -240 514 -168 165 52 264 197 288 423 5 51 10 374 10 720 l0
627 -90 0 c-89 0 -90 0 -90 25 l0 25 201 0 200 0 -3 -22 c-3 -21 -9 -23 -75
-26 l-73 -3 0 -607 c0 -653 -7 -790 -46 -912 -28 -89 -84 -180 -140 -229 -117
-103 -361 -155 -624 -131 -302 26 -491 127 -580 308 -74 150 -80 225 -80 960
l0 612 -75 0 c-73 0 -75 1 -75 25 l0 25 430 0 430 0 0 -25z m1850 0 c0 -24 -2
-25 -75 -25 l-75 0 0 -431 c0 -364 2 -430 14 -427 8 2 185 194 395 428 l381
425 -105 3 c-104 3 -105 3 -105 27 l0 25 240 0 240 0 0 -25 c0 -25 -1 -25 -84
-25 l-85 0 -233 -261 c-128 -143 -232 -263 -231 -267 1 -4 148 -293 326 -642
l325 -635 76 -3 c73 -3 76 -4 76 -27 l0 -25 -440 0 -440 0 0 25 c0 23 4 24 64
27 l65 3 -224 430 c-134 259 -229 431 -239 433 -14 3 -16 -39 -16 -432 l0
-436 75 0 c73 0 75 -1 75 -25 l0 -25 -415 0 -415 0 0 25 c0 24 2 25 75 25 l75
0 0 905 0 905 -75 0 c-73 0 -75 1 -75 25 l0 25 415 0 415 0 0 -25z m1531
-1445 c115 -22 172 -93 173 -215 2 -161 -79 -247 -233 -247 -152 -1 -235 81
-235 232 0 127 61 208 174 231 52 10 62 10 121 -1z"/>
</g>
</svg>
